<svg class="nav_std_icon" width="24" height="16" fill="none" xmlns="http://www.w3.org/2000/svg"><path clip-rule="evenodd" d="m10.9884 1.68254c-.056-.28057-.3023-.48259-.5884-.48259s-.5324.20202-.58839.48259l-.474 2.37551-.00273.0146c-.27436 1.57759-1.63599 2.90663-3.2557 3.33856l-.03377.009c-.26265.07004-.4454.30791-.4454.57974s.18275.5097.4454.57974l.03377.00901c1.61971.43192 2.98134 1.761 3.2557 3.3385l.00273.0147.474 2.3755c.05599.2805.30229.4826.58839.4826s.5324-.2021.5884-.4826l.474-2.3755.0027-.0147c.2744-1.5775 1.636-2.90658 3.2557-3.3385l-.1389-.52094.1389.52093.0338-.009c.2627-.07004.4454-.30791.4454-.57974s-.1827-.5097-.4454-.57974l-.0338-.009c-1.6197-.43193-2.9813-1.76097-3.2557-3.33856l-.0027-.0146zm-7.40891.99092c-.05445-.16334-.20731-.27351-.37948-.27351s-.32503.11017-.37947.27351l-.21026.63079c-.07963.23888-.26709.42634-.50597.50596l-.63079.21027c-.16334.05444-.27351.2073-.27351.37947s.11017.32503.27351.37947l.63079.21027c.23888.07963.42634.26708.50597.50596l.21026.63079c.05444.16334.2073.27351.37947.27351s.32503-.11017.37948-.27351l.21026-.63079c.07963-.23888.26708-.42633.50596-.50596l.63079-.21027c.16334-.05444.27351-.2073.27351-.37947s-.11017-.32503-.27351-.37947l-.63079-.21027c-.23888-.07962-.42633-.26708-.50596-.50596zm1.99999 8.00004c-.05444-.1634-.2073-.2735-.37947-.2735s-.32503.1101-.37947.2735l-.21026.6307c-.07963.2389-.26709.4264-.50597.506l-.63079.2103c-.16334.0544-.27351.2073-.27351.3795 0 .1721.11017.325.27351.3794l.63079.2103c.23888.0796.42634.2671.50597.506l.21026.6307c.05444.1634.2073.2736.37947.2736s.32503-.1102.37947-.2736l.21027-.6307c.07963-.2389.26708-.4264.50596-.506l.63079-.2103c.16334-.0544.27351-.2073.27351-.3794 0-.1722-.11017-.3251-.27351-.3795l-.63079-.2103c-.23888-.0796-.42633-.2671-.50596-.506z" fill="#611f69" fill-rule="evenodd"></path></svg>